<?xml version="1.0" encoding="iso-8859-1"?>
<!-- Generator: Adobe Illustrator 19.0.0, SVG Export Plug-In . SVG Version: 6.00 Build 0)  -->
<svg version="1.1" id="Layer_1" xmlns="http://www.w3.org/2000/svg" xmlns:xlink="http://www.w3.org/1999/xlink" x="0px" y="0px"
	 viewBox="0 0 512 512" style="enable-background:new 0 0 512 512;" xml:space="preserve">
<g>
	<g>
		<path d="M348.127,213.333h-110.95L390.563,58.197c13.295-13.286,13.295-34.918,0-48.213C384.12,3.541,375.561,0,366.465,0h-0.06
			c-9.131,0.017-17.698,3.593-24.158,10.095L150.085,205.542c-8.397,8.448-13.022,19.661-13.022,31.565
			c0,24.533,20.087,44.493,44.783,44.493h109.722L180.285,394.812l-30.123-30.131c-2.253-2.244-5.572-3.072-8.576-2.108
			c-3.029,0.947-5.282,3.49-5.845,6.622l-24.132,132.745c-0.512,2.756,0.375,5.581,2.355,7.561c1.613,1.613,3.789,2.5,6.033,2.5
			c0.512,0,1.015-0.043,1.527-0.145l132.745-24.132c3.132-0.563,5.675-2.816,6.622-5.845c0.947-3.029,0.128-6.332-2.108-8.576
			l-30.208-30.208L379.76,289.997c8.457-8.448,13.116-19.678,13.116-31.633C392.875,233.532,372.797,213.333,348.127,213.333z"/>
	</g>
</g>
<g>
</g>
<g>
</g>
<g>
</g>
<g>
</g>
<g>
</g>
<g>
</g>
<g>
</g>
<g>
</g>
<g>
</g>
<g>
</g>
<g>
</g>
<g>
</g>
<g>
</g>
<g>
</g>
<g>
</g>
</svg>
