<?xml version="1.0" encoding="iso-8859-1"?>
<!-- Generator: Adobe Illustrator 19.0.0, SVG Export Plug-In . SVG Version: 6.00 Build 0)  -->
<svg version="1.1" id="Layer_1" xmlns="http://www.w3.org/2000/svg" xmlns:xlink="http://www.w3.org/1999/xlink" x="0px" y="0px"
	 viewBox="0 0 512.352 512.352" style="enable-background:new 0 0 512.352 512.352;" xml:space="preserve">
<g>
	<g>
		<path d="M509.854,72.139c-1.929-1.929-4.651-2.842-7.364-2.389l-229.291,36.198c-3.166,0.503-5.794,2.731-6.784,5.786
			c-0.998,3.055-0.188,6.409,2.082,8.67l60.604,60.612L219.439,301.148L74.901,156.619c-3.2-3.2-8.866-3.2-12.066,0L2.496,216.958
			c-3.328,3.337-3.328,8.73,0,12.066l211.192,211.191c1.596,1.604,3.772,2.5,6.033,2.5c2.261,0,4.437-0.896,6.033-2.5l60.612-60.621
			l115.157-126.157l60.066,60.058c2.261,2.278,5.623,3.098,8.67,2.091c3.055-0.998,5.282-3.618,5.786-6.784l36.198-229.291
			C512.678,76.807,511.791,74.076,509.854,72.139z"/>
	</g>
</g>
<g>
</g>
<g>
</g>
<g>
</g>
<g>
</g>
<g>
</g>
<g>
</g>
<g>
</g>
<g>
</g>
<g>
</g>
<g>
</g>
<g>
</g>
<g>
</g>
<g>
</g>
<g>
</g>
<g>
</g>
</svg>
