<?xml version="1.0" encoding="iso-8859-1"?>
<!-- Generator: Adobe Illustrator 19.0.0, SVG Export Plug-In . SVG Version: 6.00 Build 0)  -->
<svg version="1.1" id="Layer_1" xmlns="http://www.w3.org/2000/svg" xmlns:xlink="http://www.w3.org/1999/xlink" x="0px" y="0px"
	 viewBox="0 0 512 512" style="enable-background:new 0 0 512 512;" xml:space="preserve">
<g>
	<g>
		<path d="M347.733,213.333H236.8L390.4,58.027c13.653-12.8,13.653-34.133,0-47.787C384.427,3.413,375.893,0,366.507,0
			c-9.387,0-17.92,3.413-24.747,10.24l-192,195.413c-8.533,8.533-12.8,19.627-12.8,31.573c0,24.747,20.48,44.373,44.373,42.667
			H290.56L179.627,393.387L149.76,363.52c-2.56-1.707-5.12-2.56-8.533-1.707c-3.413,0.853-5.12,3.413-5.973,6.827L111.36,501.76
			c0,2.56,0.853,5.973,2.56,7.68c1.707,1.707,3.413,2.56,5.973,2.56c0.853,0,0.853,0,1.707,0l131.413-24.747
			c3.413-0.853,5.973-2.56,6.827-5.973c1.707-2.56,0.853-5.973-1.707-8.533l-29.867-29.867l151.04-152.747
			c8.533-8.533,12.8-19.627,12.8-31.573C392.107,233.813,372.48,213.333,347.733,213.333z M367.36,278.187L210.347,437.76
			c-3.413,3.413-3.413,8.533,0,11.947l24.747,24.747l-104.96,18.773l19.627-104.96l24.747,24.747c1.707,1.707,3.413,2.56,5.973,2.56
			s4.267-0.853,5.973-2.56l130.56-133.973c2.56-2.56,3.413-5.973,1.707-9.387c-0.853-3.413-4.267-5.12-7.68-5.12H181.333
			c-14.507,0-27.307-11.947-27.307-27.307c0-7.68,2.56-14.507,7.68-19.627L354.56,22.187c3.413-3.413,7.68-5.12,11.947-5.12
			s8.533,1.707,11.947,5.12c6.827,6.827,6.827,17.067,0,23.893L210.347,215.893c-2.56,2.56-3.413,5.973-1.707,9.387
			c0.853,3.413,4.267,5.12,7.68,5.12h132.267c14.507,0,27.307,12.8,27.307,28.16C375.893,266.24,372.48,273.067,367.36,278.187z"/>
	</g>
</g>
<g>
</g>
<g>
</g>
<g>
</g>
<g>
</g>
<g>
</g>
<g>
</g>
<g>
</g>
<g>
</g>
<g>
</g>
<g>
</g>
<g>
</g>
<g>
</g>
<g>
</g>
<g>
</g>
<g>
</g>
</svg>
